<svg width="161" height="153" viewBox="0 0 161 153" fill="none" xmlns="http://www.w3.org/2000/svg">
<path d="M4.39438 138.043H158.71" stroke="white" stroke-width="3.5" stroke-miterlimit="10" stroke-linecap="round"/>
<path d="M45.3951 27.1848H70.848" stroke="white" stroke-width="3.5" stroke-miterlimit="10" stroke-linecap="round"/>
<path d="M45.3951 17.1976H70.848" stroke="white" stroke-width="3.5" stroke-miterlimit="10" stroke-linecap="round"/>
<path d="M90.6339 25.2605L114.004 25.3579" stroke="white" stroke-width="3.5" stroke-miterlimit="10" stroke-linecap="round"/>
<path d="M89.6168 35.5644L112.987 35.6375" stroke="white" stroke-width="3.5" stroke-miterlimit="10" stroke-linecap="round"/>
<path d="M4.39438 149.638H158.71" stroke="white" stroke-width="3.5" stroke-miterlimit="10" stroke-linecap="round"/>
<path d="M114.295 112.345H48.7855C47.4213 112.345 46.3153 113.457 46.3153 114.829V125.45C46.3153 126.822 47.4213 127.934 48.7855 127.934H114.295C115.659 127.934 116.765 126.822 116.765 125.45V114.829C116.765 113.457 115.659 112.345 114.295 112.345Z" stroke="white" stroke-width="3.5" stroke-miterlimit="10"/>
<path d="M34.9814 103.088V137.532" stroke="white" stroke-width="3.5" stroke-miterlimit="10" stroke-linecap="round"/>
<path d="M128.379 103.088V137.532" stroke="white" stroke-width="3.25" stroke-miterlimit="10" stroke-linecap="round"/>
<path d="M23.3568 74.1737C30.1514 74.1737 35.6595 68.6335 35.6595 61.7992C35.6595 54.965 30.1514 49.4248 23.3568 49.4248C16.5623 49.4248 11.0542 54.965 11.0542 61.7992C11.0542 68.6335 16.5623 74.1737 23.3568 74.1737Z" stroke="white" stroke-width="3.5" stroke-miterlimit="10"/>
<path d="M10.2552 137.532V90.7867C10.2552 84.6481 15.2198 79.6545 21.3227 79.6545H23.914C27.1834 79.6545 30.1138 81.0673 32.1481 83.3327" stroke="white" stroke-width="3.5" stroke-miterlimit="10" stroke-linecap="round"/>
<path d="M32.7533 84.0392L48.2285 101.456H62.9529C65.6169 101.456 67.7722 103.624 67.7722 106.303V107.424C67.7722 110.103 65.6169 112.271 62.9529 112.271H48.0347L24.9309 94.7572" stroke="white" stroke-width="3.5" stroke-miterlimit="10" stroke-linecap="round"/>
<path d="M140.329 74.1737C147.123 74.1737 152.632 68.6335 152.632 61.7992C152.632 54.965 147.123 49.4248 140.329 49.4248C133.534 49.4248 128.026 54.965 128.026 61.7992C128.026 68.6335 133.534 74.1737 140.329 74.1737Z" stroke="white" stroke-width="3.5" stroke-miterlimit="10"/>
<path d="M153.455 137.532V90.7867C153.455 84.6481 148.49 79.6545 142.387 79.6545H139.796C136.527 79.6545 133.596 81.0673 131.562 83.3327" stroke="white" stroke-width="3.5" stroke-miterlimit="10" stroke-linecap="round"/>
<path d="M130.957 84.0392L115.482 101.456H100.757C98.0931 101.456 95.9377 103.624 95.9377 106.303V107.424C95.9377 110.103 98.0931 112.271 100.757 112.271H115.675L138.779 94.7572" stroke="white" stroke-width="3.5" stroke-miterlimit="10" stroke-linecap="round"/>
<path d="M44.7896 54.8082L44.4989 41.5568H37.9117L31.6393 3.45901L84.6036 3.36157L80.1476 40.4362L57.8672 40.6311L44.7896 54.8082Z" stroke="white" stroke-width="3.5" stroke-linecap="round" stroke-linejoin="round"/>
<path d="M79.1304 48.9863L101.411 49.2055L114.488 63.3582L114.779 50.1068H121.366L127.639 12.0091L91.2878 11.936" stroke="white" stroke-width="3.5" stroke-linecap="round" stroke-linejoin="round"/>
</svg>
