<svg width="131" height="129" viewBox="0 0 131 129" fill="none" xmlns="http://www.w3.org/2000/svg">
<g clip-path="url(#clip0_60_292)">
<path d="M125.609 24.725C118.062 23.65 112.671 17.4688 112.671 10.4812C112.671 7.79375 110.784 5.375 107.819 4.8375C78.9774 -1.6125 51.7531 -1.6125 22.9115 4.8375C20.2161 5.375 18.0597 7.79375 18.0597 10.4812C18.0597 17.4688 12.6687 23.65 5.1214 24.725C2.15638 25.2625 0 27.6812 0 30.3687V70.6813C0 88.9562 11.5905 105.619 29.3807 113.412L64.4218 128.731C64.6914 129 64.9609 129 65.5 129C65.7695 129 66.3086 129 66.5782 128.731L101.619 113.412C119.409 105.619 131 88.6875 131 70.6813V30.3687C130.73 27.6812 128.574 25.2625 125.609 24.725ZM125.879 70.6813C125.879 87.3438 115.366 102.394 99.1934 109.65L65.2305 124.7L31.537 109.65C15.3642 102.394 4.85185 87.3438 4.85185 70.6813V30.3687C4.85185 29.5625 5.39095 29.025 5.93004 29.025C15.6337 27.4125 22.9115 19.6187 22.9115 10.4812C22.9115 9.675 23.4506 9.1375 23.9897 8.86875C38.2757 5.64375 51.7531 4.03125 65.5 4.03125C79.2469 4.03125 92.4547 5.64375 107.01 8.86875C107.819 9.1375 108.088 9.675 108.088 10.4812C108.088 19.6187 115.097 27.4125 125.07 29.025C125.609 29.025 126.148 29.8313 126.148 30.3687V70.6813H125.879Z" fill="white"/>
<path d="M112.671 33.0563C107.01 32.25 102.967 27.6813 102.967 22.3063C102.967 19.8875 101.35 18.0063 98.9239 17.4688C76.0124 12.3625 54.9877 12.3625 32.0761 17.4688C29.6502 18.0063 28.0329 19.8875 28.0329 22.3063C28.0329 27.6813 23.9897 31.9813 18.3292 33.0563C15.6337 33.5938 13.7469 35.475 13.7469 37.8938V69.6063C13.7469 84.1188 22.9115 97.2875 36.928 103.469L64.1523 115.563C64.4218 115.831 64.6914 115.831 65.2305 115.831C65.5 115.831 66.0391 115.831 66.3087 115.563L93.8025 103.2C107.819 97.0188 116.984 83.5813 116.984 69.3375V59.3938C116.984 58.3188 115.905 57.2438 114.558 57.2438C113.21 57.2438 112.401 58.3188 112.401 59.3938V69.3375C112.401 82.2375 104.315 93.7938 91.9156 99.4375L65.5 110.994L39.0844 99.4375C26.6852 94.0625 18.5988 82.2375 18.5988 69.3375V37.8938C18.5988 37.625 18.8683 37.3563 19.1379 37.3563C26.9547 36.0125 32.6152 29.8313 32.6152 22.3063C32.6152 22.0375 32.8848 21.7688 33.1543 21.5C55.5268 16.6625 75.4733 16.6625 97.8457 21.5C98.1152 21.5 98.3848 22.0375 98.3848 22.3063C98.3848 29.5625 104.045 36.0125 111.862 37.0875C112.132 37.0875 112.401 37.3563 112.401 37.625V43.5375C112.401 44.6125 113.479 45.6875 114.827 45.6875C116.175 45.6875 117.253 44.6125 117.253 43.5375V37.625C116.984 35.475 115.097 33.325 112.671 33.0563Z" fill="white"/>
<path d="M54.179 91.1063H76.821C78.1687 91.1063 79.2469 90.0312 79.2469 88.9562V73.6375H95.6893C97.037 73.6375 98.1152 72.5625 98.1152 71.4875V50.7938C98.1152 49.7188 97.037 48.6438 95.6893 48.6438H79.2469V33.5938C79.2469 32.5188 78.1687 31.4438 76.821 31.4438H54.179C52.8313 31.4438 51.7531 32.5188 51.7531 33.5938V48.6438H35.3107C33.963 48.6438 32.8848 49.7188 32.8848 50.7938V71.4875C32.8848 72.5625 33.963 73.6375 35.3107 73.6375H51.7531V88.6875C51.7531 90.0312 52.8313 91.1063 54.179 91.1063ZM37.7366 69.3375V52.9438H54.179C55.5267 52.9438 56.6049 51.8688 56.6049 50.7938V35.7438H74.3951V50.7938C74.3951 51.8688 75.4732 52.9438 76.821 52.9438H93.2634V69.3375H76.821C75.4732 69.3375 74.3951 70.4125 74.3951 71.4875V86.5375H56.6049V71.4875C56.6049 70.4125 55.5267 69.3375 54.179 69.3375H37.7366Z" fill="white"/>
</g>
<defs>
<clipPath id="clip0_60_292">
<rect width="131" height="129" fill="white"/>
</clipPath>
</defs>
</svg>
