<svg width="158" height="109" viewBox="0 0 158 109" fill="none" xmlns="http://www.w3.org/2000/svg">
<g clip-path="url(#clip0_60_339)">
<path d="M20.4687 68.8215H28.4262V76.7881C28.4262 78.2157 29.5761 79.3899 31.025 79.3899H44.2952C45.7211 79.3899 46.894 78.2387 46.894 76.7881V68.8215H54.8515C56.2774 68.8215 57.4504 67.6703 57.4504 66.2197V52.9343C57.4504 51.5068 56.3004 50.3325 54.8515 50.3325H46.894V42.3659C46.894 40.9383 45.7441 39.764 44.2952 39.764H31.025C29.5991 39.764 28.4262 40.9153 28.4262 42.3659V50.3325H20.4687C19.0428 50.3325 17.8699 51.4837 17.8699 52.9343V66.2197C17.8699 67.6472 19.0198 68.8215 20.4687 68.8215ZM23.0675 55.5361H31.025C32.451 55.5361 33.6239 54.3849 33.6239 52.9343V44.9677H41.7194V52.9343C41.7194 54.3619 42.8693 55.5361 44.3182 55.5361H52.2757V63.6409H44.3182C42.8923 63.6409 41.7194 64.7921 41.7194 66.2427V74.2093H33.6239V66.2427C33.6239 64.8152 32.474 63.6409 31.025 63.6409H23.0675V55.5361Z" fill="white"/>
<path d="M115.016 72.1141H68.9496C67.5237 72.1141 66.3508 73.2653 66.3508 74.7159C66.3508 76.1665 67.5007 77.3177 68.9496 77.3177H115.016C116.442 77.3177 117.615 76.1665 117.615 74.7159C117.615 73.2653 116.465 72.1141 115.016 72.1141Z" fill="white"/>
<path d="M115.016 55.9506H68.9496C67.5237 55.9506 66.3508 57.1018 66.3508 58.5524C66.3508 60.003 67.5007 61.1542 68.9496 61.1542H115.016C116.442 61.1542 117.615 60.003 117.615 58.5524C117.615 57.1018 116.465 55.9506 115.016 55.9506Z" fill="white"/>
<path d="M115.016 88.1624H20.4687C19.0428 88.1624 17.8699 89.3137 17.8699 90.7643C17.8699 92.2148 19.0198 93.3661 20.4687 93.3661H115.016C116.442 93.3661 117.615 92.2148 117.615 90.7643C117.615 89.3137 116.465 88.1624 115.016 88.1624Z" fill="white"/>
<path d="M115.016 39.7871H68.9496C67.5237 39.7871 66.3508 40.9383 66.3508 42.3889C66.3508 43.8395 67.5007 44.9907 68.9496 44.9907H115.016C116.442 44.9907 117.615 43.8395 117.615 42.3889C117.615 40.9383 116.465 39.7871 115.016 39.7871Z" fill="white"/>
<path d="M147.904 0H35.2798C32.7499 0 30.3351 0.944022 28.4722 2.64787C27.4143 3.61491 27.3453 5.24968 28.3112 6.30883C29.2772 7.36798 30.9101 7.43705 31.968 6.47C32.8649 5.64111 34.0379 5.18061 35.2798 5.18061H147.927C150.64 5.18061 152.825 7.391 152.825 10.0849V74.4856C152.825 75.5908 152.48 76.627 151.813 77.4789C150.939 78.6071 151.146 80.2419 152.273 81.1168C152.733 81.4852 153.308 81.6464 153.86 81.6464C154.642 81.6464 155.401 81.301 155.907 80.6333C157.287 78.8604 158 76.7191 158 74.4626V10.1079C158 4.53591 153.469 0 147.927 0H147.904Z" fill="white"/>
<path d="M122.72 24.3834H10.0964C4.53071 24.3834 0 28.9193 0 34.4683V98.869C0 104.441 4.53071 108.954 10.0964 108.954H122.743C128.309 108.954 132.817 104.418 132.817 98.869V34.4913C132.817 28.9193 128.286 24.4064 122.743 24.4064L122.72 24.3834ZM127.619 98.8921C127.619 101.609 125.411 103.796 122.72 103.796H10.0964C7.38253 103.796 5.19767 101.586 5.19767 98.8921V34.4913C5.19767 31.7744 7.40553 29.587 10.0964 29.587H122.743C125.457 29.587 127.642 31.7974 127.642 34.4913V98.8921H127.619Z" fill="white"/>
<path d="M135.323 12.2032H22.6766C20.0547 12.2032 17.5709 13.2163 15.685 15.0353C14.6501 16.0253 14.6271 17.6601 15.616 18.6962C16.605 19.7324 18.2379 19.7554 19.2728 18.7653C20.1927 17.8673 21.3887 17.3838 22.6766 17.3838H135.323C138.037 17.3838 140.222 19.5942 140.222 22.2881V86.6888C140.222 88.0934 139.624 89.4288 138.566 90.3728C137.508 91.3169 137.393 92.9746 138.359 94.0338C138.865 94.6094 139.578 94.9087 140.291 94.9087C140.912 94.9087 141.51 94.7015 142.016 94.264C144.178 92.353 145.397 89.59 145.397 86.7119V22.2881C145.397 16.7161 140.866 12.1802 135.3 12.1802L135.323 12.2032Z" fill="white"/>
</g>
<defs>
<clipPath id="clip0_60_339">
<rect width="158" height="109" fill="white"/>
</clipPath>
</defs>
</svg>
