<svg width="66" height="75" viewBox="0 0 66 75" fill="none" xmlns="http://www.w3.org/2000/svg">
<g clip-path="url(#clip0_79_567)">
<path d="M42.8174 74.8897C41.2936 74.8897 39.5522 74.0074 37.5931 73.125L37.4843 72.9044C36.287 72.3529 28.4506 67.6103 22.4645 61.875C16.5872 56.25 12.0159 49.0809 11.6894 48.6397L11.5806 48.4191C11.4717 48.1985 6.68282 40.9191 3.96184 33.0882C1.24086 25.0368 0.152474 15.9926 0.0436351 14.7794V14.5588C-0.065204 11.9118 -0.065204 9.59559 1.02319 8.05147C2.00274 6.94853 3.853 5.18382 6.24746 3.63971C8.64192 2.09559 11.2541 0.882353 12.8866 0.441176C14.1927 0 16.696 -0.441177 18.5463 0.882353C20.07 1.875 20.6142 3.52941 20.7231 4.08088L25.512 18.5294C25.6208 18.75 25.9473 20.2941 25.6208 21.9485C25.2943 23.7132 24.4236 24.8162 24.0971 25.1471L20.8319 29.3382C21.2673 30.4412 21.9203 32.0956 22.8998 34.0809C24.2059 36.9485 25.7297 39.2647 25.7297 39.2647L25.8385 39.375C25.8385 39.375 27.3622 41.6912 29.4302 44.2279C30.7363 45.8824 32.0423 47.3162 32.8042 47.9779L37.8108 46.6544C37.9196 46.6544 39.4434 46.2132 41.076 46.6544C42.5997 47.0956 43.7969 47.9779 44.1235 48.1985L44.2323 48.3088L55.225 58.4559C55.6604 58.6765 56.9665 60 57.1841 61.7647C57.4018 63.9706 56.0958 66.1765 55.225 67.2794C54.2455 68.4926 51.9599 70.5882 49.6742 72.1324C47.3886 73.6765 44.8853 74.5588 43.3616 75C43.4704 74.7794 43.2527 74.8897 42.8174 74.8897ZM4.83255 11.0294C4.72371 11.6912 4.83255 13.6765 4.83255 14.2279V14.4485C4.83255 15.5515 5.92094 24.1544 8.53308 31.5441C10.9275 38.7132 15.6076 45.7721 15.6076 45.7721L15.7165 45.9926C15.7165 46.1029 20.1789 53.0515 25.6208 58.2353C31.1716 63.6397 38.6815 68.0515 39.5522 68.4926L39.7699 68.6029C40.3141 68.8235 41.9467 69.7059 42.8174 69.8162C43.7969 69.5956 45.6472 68.7132 47.4975 67.6103C49.4566 66.3971 51.3068 64.5221 51.851 63.75C52.5041 62.9779 52.8306 62.2059 52.8306 61.9853C52.7217 61.875 52.6129 61.6544 52.3952 61.5441L41.4025 51.5074C41.2936 51.3971 40.7494 51.0662 40.3141 50.9559C39.8787 50.8456 39.4434 50.9559 39.3345 50.9559L31.7158 53.0515L30.7363 52.1691C30.6274 52.0588 28.4506 50.0735 25.8385 47.0956C23.6617 44.4485 22.0291 42.0221 22.0291 41.8015L21.9203 41.6912C21.9203 41.5809 20.2877 39.0441 18.764 36.0662C17.0225 32.3162 16.1518 29.5588 16.043 29.4485L15.7165 28.125L20.6142 21.9485C20.7231 21.8382 21.0496 21.3971 21.0496 21.0662C21.1584 20.625 21.0496 19.9632 21.0496 19.7426L16.2607 5.51471C16.2607 5.40441 16.1518 5.07353 15.9341 4.96324C15.7165 4.96324 14.9546 4.85294 13.8662 5.07353C12.8866 5.29412 10.601 6.28676 8.53308 7.5C7.00933 8.82353 5.48559 10.3676 4.83255 11.0294Z" fill="#001E62"/>
<path d="M61.5376 38.0515C60.6669 31.875 58.7078 26.1397 55.2249 20.9559C51.7421 15.772 47.4973 11.4706 42.2731 8.27204L44.6675 4.19116C50.5448 7.72057 55.4426 12.5735 59.0343 18.4191C62.626 24.2647 65.1293 30.6617 66 37.6103L61.5376 38.0515Z" fill="#001E62"/>
<path d="M45.5383 40.2574C44.9941 36.5074 43.7968 33.0883 41.7289 29.8898C39.6609 26.6913 37.1576 24.1545 34.0013 22.1692L36.3958 17.978C40.2051 20.2942 43.3615 23.3824 45.6471 27.1324C48.0415 30.8824 49.5653 34.9633 50.1095 39.3751L45.5383 40.2574Z" fill="#001E62"/>
</g>
<defs>
<clipPath id="clip0_79_567">
<rect width="66" height="75" fill="white"/>
</clipPath>
</defs>
</svg>
