<svg xmlns="http://www.w3.org/2000/svg" width="2064.06" height="551.51" viewBox="0 0 2064.06 551.51"><g transform="translate(-187.62 -160.17)"><path d="M187.62,341.86H373.45v39.39H231.66v65.16H357.33V485.8H231.66v67.31H375.24V592.5H187.62V341.87Zm196.92,0h48.69l75.55,192.63,75.19-192.63h47.62L527.76,594.28H488.73Zm258.3,0H828.67v39.39H686.88v65.16H812.55V485.8H686.88v67.31H830.46V592.5H642.84V341.87Zm213.3,0H967.85c31.51,0,56.21,9.31,72.33,25.06,13.25,13.61,20.77,32.22,20.77,54.07v.72c0,41.18-24.71,65.88-59.44,75.91l67.67,94.88h-52.27l-61.58-87.36H900.19V592.5H856.15V341.87ZM964.63,466.1c31.51,0,51.56-16.47,51.56-41.89v-.72c0-26.85-19.33-41.53-51.92-41.53H900.18V466.1h64.45Zm185.7,27.57-99.54-151.81h52.27l69.82,110.64,70.89-110.64h50.48L1194.71,492.6v99.9h-44.4V493.68Zm202.66,59.96,26.5-31.51c23.99,20.77,48.34,32.58,79.13,32.58,27.21,0,44.4-12.89,44.4-31.51v-.72c0-17.9-10.03-27.57-56.57-38.31-53.35-12.89-83.43-28.64-83.43-74.83v-.72c0-42.97,35.81-72.68,85.57-72.68,36.52,0,65.52,11.1,90.94,31.51l-23.63,33.3c-22.56-16.83-45.11-25.78-68.03-25.78-25.78,0-40.82,13.25-40.82,29.72v.72c0,19.33,11.46,27.93,59.79,39.38,52.99,12.89,80.2,31.87,80.2,73.4v.72c0,46.9-36.88,74.83-89.51,74.83-38.31,0-74.47-13.25-104.55-40.1Zm282.63-170.74h-79.49V342.07H1759.5v40.82h-79.49V592.71h-44.4V382.89Zm377.76-40.37h98.82c58.72,0,95.24,33.3,95.24,83.78v.72c0,56.21-45.11,85.57-100.25,85.57h-49.77v80.56h-44.04V342.52Zm95.24,130.33c33.3,0,54.07-18.62,54.07-44.76v-.72c0-29.36-21.12-44.76-54.07-44.76h-51.2v90.23h51.2ZM1356.79,702.34l6.06-7.2c5.48,4.75,11.05,7.45,18.09,7.45,6.22,0,10.15-2.95,10.15-7.2v-.16c0-4.09-2.29-6.3-12.93-8.76-12.2-2.95-19.07-6.55-19.07-17.11v-.16c0-9.82,8.18-16.62,19.56-16.62a31.78,31.78,0,0,1,20.79,7.2l-5.4,7.61c-5.16-3.85-10.31-5.89-15.55-5.89-5.89,0-9.33,3.03-9.33,6.79v.16c0,4.42,2.62,6.38,13.67,9,12.11,2.95,18.33,7.28,18.33,16.78v.16c0,10.72-8.43,17.11-20.46,17.11a35.294,35.294,0,0,1-23.9-9.17Zm55.33-15.96V653.39h10.07v32.58c0,10.64,5.48,16.29,14.49,16.29s14.41-5.32,14.41-15.88V653.39h10.07v32.49c0,17.11-9.66,25.7-24.64,25.7s-24.39-8.59-24.39-25.21Zm62.86-32.99h22.59c13.42,0,21.77,7.61,21.77,19.15v.16c0,12.85-10.31,19.56-22.92,19.56h-11.38v18.42h-10.07V653.39Zm21.77,29.8c7.61,0,12.36-4.26,12.36-10.23v-.16c0-6.71-4.83-10.23-12.36-10.23h-11.7V683.2h11.7Zm32.91-29.8h22.59c13.42,0,21.77,7.61,21.77,19.15v.16c0,12.85-10.31,19.56-22.92,19.56h-11.38v18.42h-10.07V653.39Zm21.77,29.8c7.61,0,12.36-4.26,12.36-10.23v-.16c0-6.71-4.83-10.23-12.36-10.23h-11.7V683.2h11.7Zm30.37-.98v-.16c0-16.12,12.44-29.63,30.04-29.63s29.88,13.34,29.88,29.47v.16c0,16.12-12.44,29.63-30.04,29.63S1581.8,698.34,1581.8,682.21Zm49.36,0v-.16c0-11.13-8.1-20.38-19.48-20.38s-19.32,9.08-19.32,20.22v.16c0,11.13,8.1,20.3,19.48,20.3s19.32-9,19.32-20.13Zm19.75-28.82h25.54c7.2,0,12.85,2.13,16.53,5.73a17.32,17.32,0,0,1,4.75,12.36v.16c0,9.41-5.65,15.06-13.59,17.35l15.47,21.69h-11.95l-14.08-19.97h-12.6v19.97h-10.07V653.39Zm24.8,28.41c7.2,0,11.79-3.76,11.79-9.58v-.16c0-6.14-4.42-9.5-11.87-9.5h-14.65v19.23h14.73Zm48.21-19.07h-18.17V653.4h46.49v9.33h-18.17v47.96h-10.15V662.73Zm66.68,39.61,6.06-7.2c5.48,4.75,11.05,7.45,18.09,7.45,6.22,0,10.15-2.95,10.15-7.2v-.16c0-4.09-2.29-6.3-12.93-8.76-12.2-2.95-19.07-6.55-19.07-17.11v-.16c0-9.82,8.18-16.62,19.56-16.62a31.78,31.78,0,0,1,20.79,7.2l-5.4,7.61c-5.16-3.85-10.31-5.89-15.55-5.89-5.89,0-9.33,3.03-9.33,6.79v.16c0,4.42,2.62,6.38,13.67,9,12.11,2.95,18.33,7.28,18.33,16.78v.16c0,10.72-8.43,17.11-20.46,17.11a35.294,35.294,0,0,1-23.9-9.17Zm54.23-48.95h42.48v9H1854.9v14.9h28.73v9H1854.9v15.39h32.82v9h-42.89V653.39Zm52.84,0h25.54c7.2,0,12.85,2.13,16.53,5.73a17.32,17.32,0,0,1,4.75,12.36v.16c0,9.41-5.65,15.06-13.59,17.35l15.47,21.69h-11.95l-14.08-19.97h-12.6v19.97h-10.07V653.39Zm24.8,28.41c7.2,0,11.79-3.76,11.79-9.58v-.16c0-6.14-4.42-9.5-11.87-9.5h-14.65v19.23h14.73Zm24.83-28.41h11.13l17.27,44.03,17.19-44.03h10.89l-23.74,57.7h-8.92Zm63.88,0h10.07v57.29h-10.07Zm20.83,28.82v-.16c0-16.29,12.2-29.63,29.55-29.63,10.56,0,16.94,3.68,22.43,8.92l-6.47,7.45c-4.58-4.26-9.5-7.12-16.04-7.12-10.89,0-18.91,9-18.91,20.22v.16c0,11.21,7.94,20.3,18.91,20.3,7.04,0,11.54-2.78,16.45-7.37l6.47,6.55c-5.97,6.22-12.52,10.15-23.25,10.15-16.7,0-29.14-13.01-29.14-29.47Zm62.95-28.82h42.48v9h-32.41v14.9h28.73v9h-28.73v15.39h32.82v9h-42.89V653.39Zm50.99,48.95,6.06-7.2c5.48,4.75,11.05,7.45,18.09,7.45,6.22,0,10.15-2.95,10.15-7.2v-.16c0-4.09-2.29-6.3-12.93-8.76-12.2-2.95-19.07-6.55-19.07-17.11v-.16c0-9.82,8.18-16.62,19.56-16.62a31.78,31.78,0,0,1,20.79,7.2l-5.4,7.61c-5.16-3.85-10.31-5.89-15.55-5.89-5.89,0-9.33,3.03-9.33,6.79v.16c0,4.42,2.62,6.38,13.67,9,12.11,2.95,18.33,7.28,18.33,16.78v.16c0,10.72-8.43,17.11-20.46,17.11a35.294,35.294,0,0,1-23.9-9.17Zm69.33-336.02V345.59h-7.74v-2.77h18.63v2.77h-7.78v20.73h-3.11Zm13.98,0v-23.5h4.68l5.56,16.64c.51,1.55.89,2.71,1.12,3.48.27-.86.68-2.11,1.25-3.77l5.63-16.35h4.18v23.5h-3V346.65l-6.83,19.67h-2.81l-6.8-20.01v20.01h-3Z" fill="#001e62"/><path d="M1930.98,509.6v54.07l-31.9,29.34H1698.95V538.94h200.13ZM390.84,234.12l20.34-18.35a23.075,23.075,0,0,0,8.44-17.78v-.09l-28.78,25.52Z" fill="#f47721"/><path d="M1962.88,426.2v54.07l-31.9,29.34H1756.85V455.54h174.13ZM390.84,219.6l24.94-22.25a24.446,24.446,0,0,0,8.53-18.52l-33.47,29.45Z" fill="#e2066f"/><path d="M1994.79,342.79v54.07l-31.9,29.34H1809.92V372.13h152.97ZM187.62,189.82v91.07h22.9V189.82Zm83.54-1.86c26.95,0,47.16,19.91,47.16,46.46s-20.21,46.46-47.16,46.46S224,260.97,224,234.42s20.21-46.46,47.16-46.46m0,22.57c-14.28,0-24.25,9.82-24.25,23.9s9.97,23.89,24.25,23.89,24.25-9.82,24.25-23.89-9.97-23.9-24.25-23.9m143.54,6.2v64.16h-19l-41-51.57v51.57H331.79V189.85h20.58l.15.2,38.15,47.91,24.01-21.23Zm41.77-26.91v91.07H433.56V189.82Zm11.71,77.05,14.29-16.81c9.26,7.17,19.31,10.95,30.03,10.95,7.01,0,11.35-2.35,11.35-6.26v-.26c0-3.91-3.67-5.86-16.37-8.86-19.71-4.43-34.92-9.91-34.92-28.54v-.26c0-16.94,13.63-29.2,35.85-29.2,15.74,0,28.04,4.17,38.1,12.12l-12.83,17.86c-8.47-6-17.73-8.99-25.93-8.99-6.22,0-9.89,2.48-9.89,5.87v.26c0,4.17,3.81,5.96,16.77,8.86,20.92,4.69,34.39,12.37,34.39,28.41v.26c0,18.64-14.95,29.72-37.44,29.72-16.4,0-31.88-5.08-43.39-15.12Zm-39.8-106.7-37.54,32.79v11.32l28.99-25.62a24.354,24.354,0,0,0,8.55-18.49" fill="#ac0871"/></g></svg>